PathFileType	4	(X/Y/Z)	D:\TRACE\spotREDO_2-26-24\spot_Both_Motion_1_6-v60.trc
DataRate	CameraRate	NumFrames	NumMarkers	Units	OrigDataRate	OrigDataStartFrame	OrigNumFrames
100.00	100.00	      38	9	mm	100.00	876	      7000
Frame#	Time	front left toe			Front right toe			aft left toe			aft right toe			Arm			FL body			FR body			AL Body			AR Body			
		X1	Y1	Z1	X2	Y2	Z2	X3	Y3	Z3	X4	Y4	Z4	X5	Y5	Z5	X6	Y6	Z6	X7	Y7	Z7	X8	Y8	Z8	X9	Y9	Z9	

876	8.750	-145.18202	51.06615	-451.08087	240.26709	29.73355	-618.41437	-165.48769	19.02253	126.10447	182.64786	14.08008	144.01823	-0.83551	700.73505	-795.56952	-37.88041	576.57837	-511.80801	117.84562	583.40851	-518.09338	-6.44264	565.16754	371.52600	134.29515	572.08478	367.37579	
877	8.760	-145.62158	41.16982	-451.68646	239.39110	30.34522	-618.22778	-166.26314	18.81661	126.38781	181.27640	13.99207	144.21654	-1.82052	701.11005	-795.59326	-40.78444	577.39319	-512.95905	115.08675	583.79980	-518.97534	-10.02560	565.01428	370.69543	131.23485	571.56079	366.65863	
878	8.770	-145.64067	31.36360	-452.53580	238.37140	30.57875	-618.07324	-167.44066	18.88934	126.44193	180.57297	13.94519	144.19563	-2.81168	701.47754	-795.43805	-43.76781	577.95166	-513.95410	112.03889	584.41766	-519.89728	-13.42012	564.63409	369.68594	127.41823	571.11023	365.74124	
879	8.780	-146.38834	26.21990	-455.00153	236.98206	31.21466	-617.89929	-168.76190	18.95324	126.39149	179.77240	13.74078	144.45868	-3.75181	701.74756	-795.11908	-47.06624	578.83826	-514.94586	108.41750	585.23785	-520.92548	-17.16558	563.99329	368.55893	123.68557	570.34723	364.62070	
880	8.790	-148.51736	26.49411	-454.07065	235.73265	31.99759	-618.20178	-169.88277	17.71641	127.48662	179.00638	13.40809	144.47453	-4.12705	701.69690	-794.95575	-50.59703	580.32587	-515.87604	105.05386	586.35803	-521.94757	-20.82062	562.97864	367.57953	120.20304	568.93671	363.42499	
881	8.800	-154.37311	28.04696	-451.38351	233.78064	33.39775	-617.16406	-171.53691	16.94926	127.43603	177.53995	13.83615	144.79771	-4.89230	701.92896	-794.54999	-54.69519	582.27435	-517.21332	100.97787	587.73669	-523.31140	-24.51574	562.45313	366.16162	116.69926	567.93311	362.25867	
882	8.810	-154.69930	28.17032	-450.47290	232.31511	34.42989	-616.81238	-172.36197	16.62024	127.91685	176.26944	13.84962	144.61490	-5.59109	702.40643	-794.21533	-59.21407	583.27820	-518.49445	97.03922	588.35504	-524.91486	-28.21121	562.80890	364.60837	113.25015	567.72815	360.60526	
883	8.820	-157.29854	27.43003	-450.29150	230.76862	34.54039	-617.27393	-174.02428	15.72171	126.86268	176.68669	17.41496	144.41345	-6.39028	702.81219	-794.07251	-63.30103	584.28552	-520.16711	93.04627	588.79840	-526.56171	-31.75172	563.81854	363.06967	109.17178	568.49542	359.01630	
884	8.830	-159.60611	27.53098	-450.63977	229.76685	35.18106	-617.09436	-176.02245	15.09090	127.58920	179.94237	24.83867	150.74742	-6.99726	702.74207	-793.96790	-67.18975	586.07269	-521.66064	88.79156	589.55353	-528.38989	-34.84813	563.55212	361.38461	105.80057	568.38110	357.15277	
885	8.840	-160.26013	28.27741	-450.52533	228.11237	35.70190	-617.65283	-177.16357	14.41958	127.48288	178.56345	35.07586	158.60364	-7.28744	702.40265	-793.60132	-71.37098	587.82642	-523.28156	84.84488	590.64893	-530.02502	-38.43214	562.73749	359.65936	102.75384	565.74933	355.32309	
886	8.850	-160.81885	28.17232	-450.60757	226.59148	36.48858	-617.65002	-178.32697	14.29263	127.47290	186.76930	47.94057	164.35716	-7.34545	702.07520	-793.55206	-74.95608	588.58392	-524.76208	81.28527	591.04230	-531.72821	-41.63040	563.08771	358.19208	100.34164	565.27057	353.76602	
887	8.860	-162.11954	27.92250	-450.44962	226.11267	36.68678	-617.40027	-178.79526	14.32280	127.25150	189.39899	61.61420	162.85744	-7.50522	702.01379	-793.79291	-77.92995	588.75549	-526.43573	78.37142	590.78693	-532.98773	-45.32089	564.21967	356.75192	95.97779	566.36816	352.43378	
888	8.870	-163.62660	26.85865	-450.61163	225.72266	36.78854	-617.19983	-179.83879	14.81619	127.24540	196.12558	75.21206	157.03555	-8.11136	701.95087	-793.65875	-80.95001	587.88934	-527.89099	75.55558	590.23584	-534.22418	-48.89426	565.64398	355.41562	92.37228	568.40192	351.20059	
889	8.880	-164.87569	26.71786	-450.58289	224.55321	37.16362	-617.06189	-181.08015	15.20800	127.12618	196.32866	87.45436	150.09746	-8.24605	701.39929	-793.42975	-83.36705	587.33008	-529.21063	72.96455	590.06464	-535.41901	-52.23174	566.46631	354.18967	88.29547	570.04419	350.13449	
890	8.890	-165.73047	27.17483	-450.63644	223.40665	37.50740	-617.17438	-181.64034	14.84916	126.98692	195.62959	97.77776	146.70241	-9.17116	701.23798	-793.01709	-85.74725	587.35974	-530.50385	70.49245	590.19269	-536.57336	-55.42521	567.32275	353.01654	85.43498	570.58771	348.94653	
891	8.900	-166.53792	28.17166	-450.81723	222.89746	37.73634	-617.01770	-182.90080	14.38829	127.18659	190.70836	105.88795	147.18379	-11.33819	701.95190	-792.45758	-87.72575	587.52863	-531.67987	68.53450	590.51727	-537.52448	-58.48206	567.55981	351.75238	82.57703	570.85535	347.98550	
892	8.910	-166.96605	28.70191	-450.87000	222.08357	37.70161	-617.13348	-183.90402	14.14927	127.08401	188.57199	114.56263	151.08997	-14.95787	703.71533	-791.39856	-89.47625	587.61646	-532.90283	66.63010	590.79175	-538.59442	-61.53867	567.52112	350.52127	79.41567	570.90570	346.66287	
893	8.920	-167.80952	29.02487	-451.08014	220.98953	37.98048	-616.97058	-185.23897	13.74808	127.13357	188.49751	122.56114	155.32344	-20.05533	706.00244	-790.27155	-90.93866	587.93195	-534.24078	65.32712	590.90027	-539.71558	-64.79238	567.68567	349.25446	76.71371	570.91992	346.02261	
894	8.930	-169.01765	28.98048	-451.00952	220.49733	38.42435	-616.52216	-186.38058	13.46506	126.89029	188.30292	130.64795	158.55151	-26.07002	708.69891	-788.44220	-91.93933	587.61194	-535.39337	64.30448	590.56708	-540.42444	-68.06689	567.65955	348.08975	73.01300	570.97150	345.24277	
895	8.940	-169.70911	28.78095	-451.22241	220.03394	38.73256	-616.24786	-187.72966	13.22799	126.92689	189.80252	137.32814	160.89380	-33.53311	711.77563	-786.77405	-94.41599	587.69672	-535.82129	63.48199	590.31152	-541.25897	-71.37545	568.03113	346.99170	69.75715	571.52185	344.53821	
896	8.950	-170.68022	28.96579	-451.22360	219.18469	38.73811	-616.17267	-188.68164	13.38713	126.86193	188.43997	140.66916	163.14200	-42.00383	715.22601	-784.88092	-93.60736	586.89215	-537.56262	62.26444	590.36383	-541.99518	-74.24036	568.04089	346.10596	66.77677	571.78589	343.80472	
897	8.960	-171.47006	29.28288	-451.13434	217.90372	39.12763	-616.03204	-189.85912	13.29555	127.02692	186.21341	141.13127	166.61884	-50.56186	718.79059	-782.89319	-95.28468	587.33844	-538.13336	60.69085	590.91846	-542.40747	-76.33039	567.90857	345.50375	64.69685	572.03784	343.52603	
898	8.970	-172.67992	29.68715	-451.06586	217.07906	39.87094	-616.04297	-190.26083	12.91737	127.15298	181.96834	139.49196	170.92418	-58.08999	722.60248	-780.83862	-97.38232	588.04419	-538.44794	58.13080	591.99756	-543.00671	-77.82658	567.30243	345.06085	63.05027	571.50897	342.79169	
899	8.980	-173.51947	29.68464	-450.80798	215.52925	40.76832	-616.26727	-190.84618	12.70876	127.23036	178.54958	137.47447	175.72015	-64.26530	725.94818	-779.21820	-100.56183	589.34814	-538.51929	55.03696	593.32507	-543.31647	-78.46015	566.09485	344.96338	62.60269	570.35840	342.19611	
900	8.990	-174.74481	30.05375	-450.24869	214.14224	41.80563	-616.65063	-191.72166	12.95941	127.31394	174.20781	136.15768	179.76036	-68.25169	729.02490	-777.95941	-104.03165	590.51831	-537.85602	51.21684	595.21960	-543.78802	-78.34505	565.11206	345.23135	62.59227	569.30225	341.96619	
901	9.000	-176.08401	30.43665	-449.50168	212.28758	42.75677	-617.11169	-192.16022	13.18721	127.52539	170.42697	135.40668	183.27505	-70.51125	731.82404	-777.19910	-109.05830	592.16376	-537.31323	46.85490	596.76404	-543.92340	-77.94840	563.59412	345.61783	63.30561	568.13892	341.75281	
902	9.010	-177.69225	30.36918	-449.09189	209.95276	43.73442	-617.90698	-192.41628	13.47778	127.69997	167.09804	135.23796	185.43410	-70.87217	733.54565	-776.81165	-113.82600	593.77368	-536.54541	42.13584	598.56573	-543.82666	-77.20521	562.65216	346.33026	63.68042	567.00635	341.44122	
903	9.020	-179.39445	29.92521	-448.78046	207.78990	44.94998	-617.91663	-192.59015	13.65929	128.04451	165.44032	135.91461	186.72310	-69.76473	734.50861	-776.96771	-118.05214	595.05530	-535.37299	37.87520	599.92517	-543.57690	-76.49645	561.39392	347.03928	64.56169	565.95551	341.53384	
904	9.030	-181.06886	29.39931	-448.52527	205.26772	45.05355	-618.23352	-193.12170	13.71299	128.46861	164.85643	135.97620	186.54002	-67.18639	734.73926	-777.43304	-122.59692	596.25684	-534.29327	32.94792	601.13879	-543.47375	-76.34064	560.13171	347.72824	64.61025	564.93433	341.37314	
905	9.040	-182.03746	29.44890	-448.15417	204.42867	45.90474	-617.93195	-194.25746	13.61492	128.76582	166.39832	135.45378	185.23567	-64.21836	734.61371	-778.05542	-126.77039	597.44135	-533.30176	29.25020	602.41986	-542.91913	-76.59973	558.92371	348.67694	64.29794	563.74561	341.73114	
906	9.050	-183.04741	29.68066	-448.16766	204.81520	47.01772	-617.74353	-194.91869	13.32378	128.87828	169.28140	133.70483	183.24495	-60.89377	733.91022	-778.61102	-129.56702	598.34338	-532.27228	25.57097	603.92633	-542.09338	-77.72116	558.17200	349.29977	63.47303	562.81635	341.97797	
907	9.060	-184.50308	29.68826	-448.29214	204.39601	47.85718	-617.34467	-195.91104	13.23698	129.10539	173.36276	130.56543	179.45143	-58.02911	733.22339	-778.87720	-131.38992	598.88446	-531.48907	23.83505	604.34155	-541.31244	-79.67437	557.61487	350.00446	61.34261	562.73279	342.66724	
908	9.070	-184.98091	29.77653	-447.96497	203.53043	47.82248	-616.99805	-196.53656	12.87883	129.40733	178.53787	124.65836	175.21176	-56.23999	732.14557	-779.00183	-133.11002	599.29987	-530.78387	23.01547	604.56946	-540.86285	-82.19593	557.47528	350.53189	58.93190	562.39972	343.59644	
909	9.080	-185.01656	30.56321	-448.24246	203.04855	47.91869	-616.77472	-198.24748	12.75302	129.42085	184.51334	116.73212	170.76146	-55.99549	730.90137	-778.62793	-132.99611	599.68396	-530.53308	23.06960	604.89459	-539.91010	-85.69339	557.71289	351.28204	55.59551	562.30090	344.88074	
910	9.090	-185.19153	31.24723	-448.26453	201.71065	46.75032	-616.74066	-199.66643	11.95799	129.44641	190.53383	106.77039	166.60573	-57.27578	729.41980	-778.35034	-132.32385	600.19891	-530.26288	23.68091	605.09937	-539.08807	-89.41661	557.32880	351.50290	51.98800	561.62622	345.82565	
911	9.100	-185.46417	31.62923	-448.53928	201.85733	46.19355	-616.00635	-201.07985	11.19747	129.35194	195.75902	95.50562	163.16069	-59.12878	728.83289	-777.93915	-131.58368	600.82617	-530.04913	24.87648	605.02905	-537.95447	-93.12132	557.18225	351.96542	48.11824	561.24194	346.88077	
912	9.110	-185.57143	32.51585	-449.05164	202.04889	46.30951	-615.47675	-202.46269	10.64485	129.30714	200.97664	84.12020	160.77367	-62.03874	728.62891	-777.68530	-130.78903	601.38519	-529.64673	26.29647	605.00555	-536.83630	-96.65485	556.45032	351.89880	44.36475	560.64606	347.93704	
913	9.120	-185.43225	33.20844	-449.17172	201.73076	46.35975	-615.00775	-203.61185	10.11868	129.46321	206.48102	72.91996	158.59239	-65.20473	728.50818	-777.09650	-127.99074	600.88171	-530.04297	27.38517	605.02112	-535.48706	-99.88734	556.01733	352.17978	41.25358	560.05939	349.01437	
